<svg xmlns="http://www.w3.org/2000/svg" viewBox="0 0 312.98 93.23">
  <defs>
    <style>.a{fill:#231f20;}</style>
  </defs>
  <path class="a" d="M312.98 93.23h-171.64v-8h163.64v-77.23h-296.98v15.35h-8v-23.35h312.98v93.23z"/>
  <path class="a" d="M4359.45 196.86h16.36a35.9 35.9 0 0 1 11.46 1.65 21.58 21.58 0 0 1 8.07 4.68 19 19 0 0 1 4.77 7.34 27.88 27.88 0 0 1 1.58 9.65 28.44 28.44 0 0 1-1.55 9.65 18.8 18.8 0 0 1-4.71 7.34 21.34 21.34 0 0 1-7.9 4.68 33.73 33.73 0 0 1-11.07 1.65h-17v-46.64zm16.88 34.45a8.35 8.35 0 0 0 3.13-.59 6.88 6.88 0 0 0 2.63-1.91 9.79 9.79 0 0 0 1.84-3.39 16.28 16.28 0 0 0 .69-5.1 19.88 19.88 0 0 0-.59-5.24 9.27 9.27 0 0 0-1.68-3.46 6.37 6.37 0 0 0-2.57-1.91 8.71 8.71 0 0 0-3.26-.59h-1.71v22.2h1.51zM4429.26 196a24.13 24.13 0 1 0 24.13 24.13 24.13 24.13 0 0 0-24.13-24.13zm0 33.39a9.26 9.26 0 1 1 9.26-9.26 9.26 9.26 0 0 1-9.26 9.3z" transform="translate(-4161.63 -173.51)"/>
  <path class="a" d="M22.03 58.79h4.41v-24.24h-4.41v-11.2h24.57v11.2h-4.41v24.24h4.41v11.2h-24.57v-11.2z"/>
  <path class="a" d="M4211.65 232.3h4.41v-24.24h-4.41v-11.2h20.62a35.9 35.9 0 0 1 11.46 1.65 21.57 21.57 0 0 1 8.07 4.68 19 19 0 0 1 4.78 7.34 27.89 27.89 0 0 1 1.58 9.65 28.43 28.43 0 0 1-1.55 9.65 18.8 18.8 0 0 1-4.71 7.34 21.35 21.35 0 0 1-7.9 4.68 33.73 33.73 0 0 1-11.07 1.65h-21.27v-11.2zm21.14-1a8.35 8.35 0 0 0 3.13-.59 6.88 6.88 0 0 0 2.63-1.91 9.79 9.79 0 0 0 1.84-3.39 16.3 16.3 0 0 0 .69-5.1 19.88 19.88 0 0 0-.59-5.24 9.25 9.25 0 0 0-1.68-3.46 6.37 6.37 0 0 0-2.57-1.91 8.7 8.7 0 0 0-3.26-.59h-1.71v22.2h1.51z" transform="translate(-4161.63 -173.51)"/>
  <path class="a" d="M99.42 58.79h4.41v-24.24h-4.41v-11.2h37.21v11.23h-17.45v6.91h13.78v9.31h-13.78v8h18.71v11.19h-38.47v-11.2zM177.7 23.35h-20.55l-11.53 35.44h-4.25v11.2h15.68l3.15-11.16h13.31l3.17 11.16h16.8zm-14.69 25.49l3.82-13.17 3.82 13.17h-7.64z"/>
</svg>
